HIERARCHY
ROOT Hips
{
	OFFSET 0.00000 0.00000 0.00000
	CHANNELS 6 Xposition Yposition Zposition Zrotation Yrotation Xrotation 
	JOINT LHipJoint
	{
		OFFSET 0 0 0
		CHANNELS 3 Zrotation Yrotation Xrotation
		JOINT LeftUpLeg
		{
			OFFSET 1.62964 -1.40469 0.78906
			CHANNELS 3 Zrotation Yrotation Xrotation
			JOINT LeftLeg
			{
				OFFSET 2.29640 -6.30932 0.00000
				CHANNELS 3 Zrotation Yrotation Xrotation
				JOINT LeftFoot
				{
					OFFSET 2.29451 -6.30412 0.00000
					CHANNELS 3 Zrotation Yrotation Xrotation
					JOINT LeftToeBase
					{
						OFFSET 0.03611 -0.09921 1.56387
						CHANNELS 3 Zrotation Yrotation Xrotation
						End Site
						{
							OFFSET 0.00000 -0.00000 0.80291
						}
					}
				}
			}
		}
	}
	JOINT RHipJoint
	{
		OFFSET 0 0 0
		CHANNELS 3 Zrotation Yrotation Xrotation
		JOINT RightUpLeg
		{
			OFFSET -1.73712 -1.40469 0.78906
			CHANNELS 3 Zrotation Yrotation Xrotation
			JOINT RightLeg
			{
				OFFSET -2.28137 -6.26801 0.00000
				CHANNELS 3 Zrotation Yrotation Xrotation
				JOINT RightFoot
				{
					OFFSET -2.28681 -6.28298 0.00000
					CHANNELS 3 Zrotation Yrotation Xrotation
					JOINT RightToeBase
					{
						OFFSET -0.15927 -0.43759 1.61103
						CHANNELS 3 Zrotation Yrotation Xrotation
						End Site
						{
							OFFSET -0.00000 -0.00000 0.84630
						}
					}
				}
			}
		}
	}
	JOINT LowerBack
	{
		OFFSET 0 0 0
		CHANNELS 3 Zrotation Yrotation Xrotation
		JOINT Spine
		{
			OFFSET -0.04227 2.04338 -0.00225
			CHANNELS 3 Zrotation Yrotation Xrotation
			JOINT Spine1
			{
				OFFSET -0.02148 2.04482 -0.04273
				CHANNELS 3 Zrotation Yrotation Xrotation
				JOINT Neck
				{
					OFFSET 0 0 0
					CHANNELS 3 Zrotation Yrotation Xrotation
					JOINT Neck1
					{
						OFFSET 0.09180 1.44629 0.19359
						CHANNELS 3 Zrotation Yrotation Xrotation
						JOINT Head
						{
							OFFSET 0.00887 1.40645 0.14750
							CHANNELS 3 Zrotation Yrotation Xrotation
							End Site
							{
								OFFSET -0.00669 1.50671 0.03707
							}
						}
					}
				}
				JOINT LeftShoulder
				{
					OFFSET 0 0 0
					CHANNELS 3 Zrotation Yrotation Xrotation
					JOINT LeftArm
					{
						OFFSET 2.17674 1.86763 -0.06520
						CHANNELS 3 Zrotation Yrotation Xrotation
						JOINT LeftForeArm
						{
							OFFSET 4.65776 -0.00000 0.00000
							CHANNELS 3 Zrotation Yrotation Xrotation
							JOINT LeftHand
							{
								OFFSET 3.55539 -0.00000 0.00000
								CHANNELS 3 Zrotation Yrotation Xrotation
								JOINT LeftFingerBase
								{
									OFFSET 0 0 0
									CHANNELS 3 Zrotation Yrotation Xrotation
									JOINT LeftHandIndex1
									{
										OFFSET 0.70726 -0.00000 0.00000
										CHANNELS 3 Zrotation Yrotation Xrotation
										End Site
										{
											OFFSET 0.57022 -0.00000 0.00000
										}
									}
								}
								JOINT LThumb
								{
									OFFSET 0 0 0
									CHANNELS 3 Zrotation Yrotation Xrotation
									End Site
									{
										OFFSET 0.57892 -0.00000 0.57892
									}
								}
							}
						}
					}
				}
				JOINT RightShoulder
				{
					OFFSET 0 0 0
					CHANNELS 3 Zrotation Yrotation Xrotation
					JOINT RightArm
					{
						OFFSET -2.80694 1.55459 -0.32496
						CHANNELS 3 Zrotation Yrotation Xrotation
						JOINT RightForeArm
						{
							OFFSET -4.71925 -0.00000 -0.00000
							CHANNELS 3 Zrotation Yrotation Xrotation
							JOINT RightHand
							{
								OFFSET -3.56990 -0.00000 0.00000
								CHANNELS 3 Zrotation Yrotation Xrotation
								JOINT RightFingerBase
								{
									OFFSET 0 0 0
									CHANNELS 3 Zrotation Yrotation Xrotation
									JOINT RightHandIndex1
									{
										OFFSET -0.50776 -0.00000 0.00000
										CHANNELS 3 Zrotation Yrotation Xrotation
										End Site
										{
											OFFSET -0.40937 -0.00000 0.00000
										}
									}
								}
								JOINT RThumb
								{
									OFFSET 0 0 0
									CHANNELS 3 Zrotation Yrotation Xrotation
									End Site
									{
										OFFSET -0.41562 -0.00000 0.41562
									}
								}
							}
						}
					}
				}
			}
		}
	}
}
MOTION
Frames: 16
Frame Time: .0083333
9.013 16.2961 31.7245 0 0 0 0 0 0 -21 0 0 0 0 0 0 0 0 0 0 0 0 0 0 21 0 0 0 0 0 0 0 0 0 0 0 0 0 0 0 0 0 0 0 0 0 0 -16 0 0 21 0 0 11 0 0 0 -8 0 0 0 0 0 0 0 0 0 0 0 0 0 0 0 0 0 0 0 0 8 0 0 0 0 0 0 0 0 0 0 0 0 0 0 0 0 0
9.0130 16.2961 31.7245 175.9780 -4.1365 -160.2420 0.0000 0.0000 0.0000 -23.3602 -17.3729 -15.2400 0.4456 4.2830 11.8742 0.3217 -3.0537 -10.0981 4.1997 -12.4216 -37.2401 0.0000 0.0000 0.0000 16.0061 12.7675 -13.9377 -0.2238 -3.0450 8.4041 -1.1807 -3.1216 -21.8677 -2.2057 9.2820 -26.6815 -9.2090 -2.7811 -24.4342 -1.3857 -1.4368 -1.1414 3.1516 -1.3652 12.6106 -1.6662 -3.1795 0.0794 5.7730 -4.7977 -16.3380 2.2909 -3.0729 -4.7186 0.0000 -0.0000 0.0000 -86.1938 -5.3556 21.7467 10.7096 -17.8418 -1.6859 -0.0000 0.0000 -0.3432 23.5575 -11.7517 -5.0746 -7.1250 0.0000 -0.0000 -2.5230 17.2011 1.6657 0.0000 -0.0000 0.0000 92.3093 1.2677 12.0557 -15.3233 24.5946 -3.3594 0.0000 0.0000 1.6230 -12.6847 -55.1936 10.4706 7.1250 -0.0000 -0.0000 75.3942 -76.4665 -61.5518
9.0106 16.2887 31.7329 175.8080 -3.9204 -160.2050 0.0000 0.0000 0.0000 -23.5713 -17.0538 -15.5243 0.4575 4.3390 12.0324 0.3164 -3.2509 -10.0038 4.1651 -12.3769 -37.0787 0.0000 0.0000 0.0000 15.7024 12.8145 -14.1942 -0.2354 -3.1227 8.6206 -1.4636 -2.0055 -23.6577 -1.5062 7.7512 -21.9610 -9.3678 -2.7137 -24.3457 -1.4565 -1.3178 -1.1803 3.2057 -1.3167 12.5022 -1.7096 -3.1693 0.1438 5.7775 -4.7809 -16.3620 2.3011 -3.0618 -4.7361 -0.0000 -0.0000 0.0000 -86.2518 -5.1702 21.7380 10.2535 -17.1352 -1.5488 -0.0000 -0.0000 1.3769 24.4963 -10.7929 -4.8769 -7.1250 0.0000 -0.0000 -1.8179 18.1516 1.1617 -0.0000 -0.0000 0.0000 92.2388 1.0358 12.2031 -15.2868 24.5441 -3.3442 0.0000 0.0000 1.3333 -13.6467 -55.6811 11.3387 7.1250 -0.0000 -0.0000 77.3687 -76.8826 -63.9155
9.0080 16.2820 31.7410 175.5850 -3.6693 -160.1510 0.0000 0.0000 0.0000 -23.8462 -16.9600 -15.6789 0.4623 4.3612 12.0950 0.3195 -3.2644 -10.0539 4.2325 -12.4635 -37.3921 0.0000 0.0000 0.0000 15.2941 13.3693 -15.1127 -0.3398 -3.7456 10.3622 -1.8723 -1.0739 -26.2838 -1.0294 6.4539 -18.1072 -9.5590 -2.6762 -24.2848 -1.5209 -1.2269 -1.2107 3.2741 -1.2843 12.4231 -1.8079 -3.1428 0.1684 5.7909 -4.7482 -16.3989 2.3218 -3.0422 -4.7499 0.0000 0.0000 0.0000 -86.3168 -4.9753 21.5824 9.8116 -16.4443 -1.4211 -0.0000 -0.0000 3.2429 25.3114 -10.0791 -4.7315 -7.1250 0.0000 -0.0000 -1.2060 18.8572 0.7516 0.0000 0.0000 0.0000 92.1659 0.8018 12.2881 -15.3000 24.5624 -3.3497 0.0000 0.0000 1.1667 -14.5462 -56.1391 12.1596 7.1250 -0.0000 -0.0000 79.3805 -77.2489 -66.2784
8.9873 16.2610 31.6879 174.8010 -2.9141 -160.6710 0.0000 0.0000 0.0000 -25.3849 -16.6556 -14.3180 0.4083 4.1018 11.3632 0.3308 -2.8372 -10.2570 4.2005 -12.4225 -37.2435 0.0000 0.0000 0.0000 14.4015 12.6701 -14.5388 -0.3382 -3.7373 10.3389 -2.4051 0.8149 -29.1448 -0.5968 4.9455 -13.7531 -10.1316 -2.5603 -24.5841 -1.8556 -0.8107 -0.8839 3.3458 -1.1445 12.9212 -1.6791 -3.1275 0.4267 5.7326 -4.7686 -16.9428 2.3061 -3.0846 -4.9656 -0.0000 0.0000 0.0000 -86.2798 -4.8628 21.4779 9.3576 -15.7285 -1.2954 -0.0000 -0.0000 4.8863 26.0332 -9.4553 -4.5877 -7.1250 0.0000 -0.0000 -0.6603 19.4797 0.4023 -0.0000 0.0000 0.0000 92.2052 0.7558 12.0958 -15.2186 24.4498 -3.3159 0.0000 0.0000 1.2513 -15.4351 -56.5737 12.9765 7.1250 -0.0000 -0.0000 81.4384 -77.5867 -68.6721
8.9939 16.2819 31.7085 175.6990 -2.8590 -160.2860 0.0000 0.0000 0.0000 -24.0625 -16.6408 -15.1463 0.4233 4.1760 11.5723 0.3289 -2.7334 -10.2341 4.0643 -12.2455 -36.6060 0.0000 0.0000 0.0000 15.3600 13.4981 -14.8390 -0.3305 -3.6948 10.2195 -1.3537 -2.5019 -23.0065 -3.0282 10.7406 -31.4098 -9.2152 -2.3222 -24.7493 -1.7182 -0.7614 -1.0317 3.0037 -1.0625 12.8199 -1.5925 -3.1606 0.3632 5.7535 -4.8074 -16.8835 2.2965 -3.1088 -4.9367 0.0000 -0.0000 0.0000 -85.9618 -4.7763 22.2947 8.9040 -15.0072 -1.1751 -0.0000 -0.0000 5.3974 26.7991 -8.5201 -4.2798 -7.1250 0.0000 -0.0000 -0.0618 20.4522 0.0363 0.0000 -0.0000 0.0000 92.4410 0.7937 11.7249 -15.0890 24.2699 -3.2624 0.0000 0.0000 1.4487 -16.2985 -57.0044 13.7789 7.1250 -0.0000 -0.0000 83.6192 -77.8906 -71.1674
8.9915 16.2649 31.7233 175.6050 -3.3973 -159.3710 0.0000 0.0000 0.0000 -23.8077 -17.3486 -16.3837 0.4615 4.3578 12.0856 0.3211 -3.0164 -10.0896 4.1079 -12.3027 -36.8113 0.0000 0.0000 0.0000 15.0770 13.7419 -15.5458 -0.3045 -3.5481 9.8085 -1.3167 -3.0782 -22.9794 -2.8935 10.5206 -30.6796 -9.2855 -2.5674 -25.3247 -1.6557 -1.0683 -1.2898 2.9959 -1.2225 12.8693 -1.6665 -3.1757 0.4050 5.7241 -4.8320 -16.8989 2.3018 -3.1137 -4.9466 0.0000 -0.0000 0.0000 -85.7952 -4.5017 24.3274 8.4654 -14.3045 -1.0642 -0.0000 -0.0000 5.4516 28.6014 -7.4347 -4.0357 -7.1250 0.0000 -0.0000 1.3023 21.5267 -0.7338 0.0000 -0.0000 0.0000 92.3825 0.7548 11.0930 -14.9013 24.0085 -3.1857 0.0000 0.0000 2.3077 -15.5861 -57.1739 13.1920 7.1250 -0.0000 -0.0000 84.2308 -77.6267 -71.4906
8.9892 16.2646 31.7215 175.6000 -3.4313 -159.3820 0.0000 0.0000 0.0000 -23.8360 -17.3834 -16.3479 0.4637 4.3678 12.1138 0.3276 -2.9902 -10.1948 4.2274 -12.4571 -37.3687 0.0000 0.0000 0.0000 15.0886 14.2140 -15.1063 -0.2851 -3.4342 9.4901 -1.2833 -3.6477 -22.9927 -2.9488 10.6117 -30.9814 -9.2382 -2.5888 -25.2276 -1.6623 -1.1253 -1.3240 2.9438 -1.2424 12.7818 -1.6571 -3.1456 0.6050 5.6881 -4.8029 -17.1086 2.2994 -3.1063 -5.0476 -0.0000 0.0000 0.0000 -85.8802 -4.2536 23.1483 8.2281 -13.9220 -1.0063 -0.0000 -0.0000 6.8335 27.8613 -6.9210 -3.6447 -7.1250 0.0000 -0.0000 0.7933 22.1621 -0.4355 -0.0000 0.0000 0.0000 92.3751 0.6792 10.1679 -14.5423 23.5047 -3.0411 0.0000 0.0000 3.6860 -14.4018 -56.0854 12.0299 7.1250 -0.0000 -0.0000 79.1357 -77.1928 -65.9773
8.9884 16.2651 31.7214 175.5610 -3.4392 -159.3580 0.0000 0.0000 0.0000 -23.8838 -17.4291 -16.3649 0.4662 4.3796 12.1471 0.3280 -3.0249 -10.1993 4.1710 -12.3846 -37.1064 0.0000 0.0000 0.0000 15.0425 14.3068 -14.9862 -0.2758 -3.3777 9.3321 -1.2645 -3.8231 -22.9297 -3.0288 10.7416 -31.4133 -9.2480 -2.6135 -25.1791 -1.6832 -1.1573 -1.3169 2.9147 -1.2564 12.7675 -1.6607 -3.1551 0.5945 5.7673 -4.8204 -17.2114 2.3283 -3.1277 -5.0746 0.0000 0.0000 0.0000 -86.2748 -4.1504 19.1540 8.0295 -13.6006 -0.9590 -0.0000 -0.0000 10.7007 21.6644 -9.1372 -3.6094 -7.1250 0.0000 -0.0000 -3.7731 20.1714 2.2454 0.0000 0.0000 0.0000 92.4029 0.6517 9.5479 -14.3157 23.1843 -2.9513 0.0000 0.0000 4.5135 -119.5712 78.4816 -120.0741 7.1250 -0.0000 -0.0000 160.4453 54.4307 175.3339
8.9890 16.2692 31.7221 175.8390 -3.5262 -159.1890 0.0000 0.0000 0.0000 -23.4774 -17.4374 -16.6657 0.4740 4.4154 12.2485 0.3224 -3.1096 -10.1064 4.1889 -12.4076 -37.1896 0.0000 0.0000 0.0000 15.3783 12.4354 -15.7907 -0.2536 -3.2401 8.9479 -1.2669 -2.0688 -22.1004 -3.0138 10.7173 -31.3322 -8.9988 -2.5921 -25.3140 -1.5942 -1.1966 -1.3498 2.8592 -1.2623 12.8044 -1.6216 -3.1768 0.6166 5.8141 -4.8553 -17.3341 2.3422 -3.1582 -5.1147 -0.0000 -0.0000 0.0000 -86.2341 -4.1132 18.3913 7.7707 -13.1806 -0.8991 -0.0000 -0.0000 11.1608 21.3941 -0.6147 -0.2408 -7.1250 0.0000 -0.0000 -4.0488 29.3089 1.5521 -0.0000 -0.0000 0.0000 92.4187 0.5506 9.2710 -14.2580 23.1023 -2.9286 0.0000 0.0000 4.6895 -121.7465 78.1628 -122.3002 7.1250 -0.0000 -0.0000 160.7515 53.9115 175.6593
8.9894 16.2695 31.7207 175.8470 -3.5242 -159.1290 0.0000 0.0000 0.0000 -23.4529 -17.4101 -16.7491 0.4737 4.4143 12.2453 0.3229 -3.1271 -10.1124 4.3512 -12.6136 -37.9389 0.0000 0.0000 0.0000 15.3710 12.4504 -15.9011 -0.2576 -3.2655 9.0188 -1.2783 -1.9842 -22.1582 -2.9188 10.5624 -30.8180 -9.0148 -2.6006 -25.3518 -1.5898 -1.2039 -1.3666 2.8699 -1.2678 12.8064 -1.5768 -3.2008 0.7354 5.8756 -4.8868 -17.4872 2.3630 -3.1882 -5.1804 0.0000 0.0000 0.0000 -85.9717 -4.0573 19.2583 7.4471 -12.6527 -0.8268 -0.0000 -0.0000 10.1255 21.6224 -0.7385 -0.2927 -7.1250 0.0000 -0.0000 -3.8657 29.1758 1.4938 0.0000 0.0000 0.0000 92.4471 0.4491 8.8734 -14.1680 22.9743 -2.8934 0.0000 0.0000 5.0733 -120.3746 78.1430 -120.9165 7.1250 -0.0000 -0.0000 160.8420 54.1278 175.5779
8.9909 16.2686 31.7146 175.8850 -3.4922 -159.0240 0.0000 0.0000 0.0000 -23.3677 -17.4336 -16.8144 0.4673 4.3845 12.1610 0.3271 -3.0574 -10.1841 4.3531 -12.6160 -37.9477 0.0000 0.0000 0.0000 15.3936 12.5469 -15.9938 -0.2590 -3.2744 9.0437 -1.2869 -1.9896 -22.2320 -2.9519 10.6168 -30.9981 -9.0258 -2.6354 -25.5524 -1.5532 -1.2290 -1.3542 2.9035 -1.2866 12.9346 -1.4941 -3.1700 0.8818 5.8495 -4.8622 -17.7447 2.3524 -3.1934 -5.2893 -0.0000 0.0000 0.0000 -86.2434 -4.0675 15.8738 7.0931 -12.0724 -0.7510 -0.0000 -0.0000 13.7614 21.8926 -9.8344 -3.9264 -7.1250 0.0000 -0.0000 -3.6258 19.4090 2.2193 -0.0000 0.0000 0.0000 92.4670 0.2198 10.4174 -14.5142 23.4650 -3.0299 0.0000 0.0000 2.1445 -17.8439 -57.4942 15.1885 7.1250 -0.0000 -0.0000 86.5022 -78.4021 -74.6097
8.9914 16.2686 31.7108 175.9200 -3.4331 -159.0250 0.0000 0.0000 0.0000 -23.3121 -17.4524 -16.7731 0.4640 4.3693 12.1181 0.3296 -2.9772 -10.2274 4.2731 -12.5152 -37.5799 0.0000 0.0000 0.0000 15.4330 12.5852 -15.9874 -0.2596 -3.2778 9.0531 -1.2879 -2.0109 -22.2500 -3.0398 10.7592 -31.4721 -9.0548 -2.6861 -25.5625 -1.4810 -1.2941 -1.3636 2.9793 -1.3197 12.9395 -1.5640 -3.0844 0.8494 5.7401 -4.7633 -17.7264 2.3244 -3.1324 -5.2832 0.0000 -0.0000 0.0000 -86.6005 -4.0154 11.7943 6.7531 -11.5123 -0.6815 -0.0000 -0.0000 17.9932 21.9624 -10.2934 -4.1215 -7.1250 0.0000 -0.0000 -3.5887 18.9123 2.2362 0.0000 -0.0000 0.0000 92.3387 0.0462 10.6689 -14.4540 23.3800 -3.0059 0.0000 0.0000 1.6821 -12.5315 -55.5222 10.3831 7.1250 -0.0000 -0.0000 76.7852 -76.4505 -62.8729
8.9912 16.2699 31.7109 175.9450 -3.4114 -159.0640 0.0000 0.0000 0.0000 -23.2885 -17.4103 -16.7473 0.4665 4.3806 12.1501 0.3292 -2.9731 -10.2212 4.3102 -12.5622 -37.7509 0.0000 0.0000 0.0000 15.4604 12.6136 -15.9392 -0.2588 -3.2732 9.0404 -1.2735 -2.0310 -22.1386 -2.9658 10.6396 -31.0737 -9.0325 -2.6939 -25.3665 -1.4775 -1.3449 -1.4430 2.9589 -1.3354 12.7442 -1.6049 -3.1072 1.0271 5.8132 -4.7803 -17.7795 2.3606 -3.1430 -5.3260 0.0000 0.0000 0.0000 -86.6467 -3.8861 9.6247 6.4267 -10.9720 -0.6179 -0.0000 -0.0000 19.8671 21.7356 -10.5178 -4.1623 -7.1250 0.0000 -0.0000 -3.7557 18.6907 2.3592 0.0000 0.0000 0.0000 92.3279 -0.2662 10.7264 -14.4289 23.3445 -2.9960 0.0000 0.0000 1.5825 -9.6760 -55.6726 8.0149 7.1250 -0.0000 -0.0000 77.8078 -75.4141 -62.7022
8.9910 16.2706 31.7087 175.9490 -3.3733 -159.0120 0.0000 0.0000 0.0000 -23.2812 -17.3793 -16.8108 0.4675 4.3855 12.1637 0.3317 -2.9587 -10.2629 4.3357 -12.5943 -37.8680 0.0000 0.0000 0.0000 15.4395 12.6790 -15.9992 -0.2610 -3.2867 9.0779 -1.2688 -1.9650 -22.0706 -2.8107 10.3822 -30.2234 -8.9795 -2.6394 -25.4595 -1.5697 -1.2661 -1.4052 2.8480 -1.2978 12.8265 -1.6257 -3.1933 0.6925 5.8985 -4.8573 -17.2578 2.3687 -3.1601 -5.1011 0.0000 -0.0000 0.0000 -86.5477 -4.0247 7.4601 6.1000 -10.4288 -0.5572 -0.0000 -0.0000 22.0519 21.4881 -10.9314 -4.2694 -7.1250 0.0000 -0.0000 -3.9424 18.2698 2.5137 0.0000 -0.0000 0.0000 92.5259 -0.3373 10.4326 -14.4224 23.3353 -2.9934 0.0000 0.0000 1.7023 -9.0391 -56.4973 7.5564 7.1250 -0.0000 -0.0000 81.0697 -75.2629 -65.7228
8.9891 16.2717 31.7053 175.9620 -3.3509 -158.9440 0.0000 0.0000 0.0000 -23.2561 -17.4460 -16.8464 0.4657 4.3771 12.1400 0.3309 -2.9164 -10.2522 4.1782 -12.3939 -37.1400 0.0000 0.0000 0.0000 15.4281 12.6137 -16.1309 -0.2647 -3.3099 9.1428 -1.2772 -1.8160 -22.0762 -2.8123 10.3848 -30.2319 -8.9588 -2.6349 -25.5343 -1.5674 -1.2599 -1.4065 2.8391 -1.2958 12.8646 -1.6281 -3.2023 0.5807 5.8971 -4.8591 -17.0786 2.3603 -3.1520 -5.0265 0.0000 -0.0000 0.0000 -86.5111 -4.0641 5.4313 5.8245 -9.9691 -0.5084 -0.0000 -0.0000 24.1954 21.5253 -10.9118 -4.2700 -7.1250 0.0000 -0.0000 -3.9156 18.2876 2.4950 0.0000 -0.0000 0.0000 92.5141 -0.4503 10.3941 -14.3937 23.2947 -2.9820 0.0000 0.0000 1.5492 -9.1056 -56.5076 7.6132 7.1250 -0.0000 -0.0000 81.1022 -75.2876 -65.7828
